M48
; DRILL file {KiCad 9.0.7} date 2026-01-22T21:05:53+0100
; FORMAT={-:-/ absolute / metric / decimal}
; #@! TF.CreationDate,2026-01-22T21:05:53+01:00
; #@! TF.GenerationSoftware,Kicad,Pcbnew,9.0.7
; #@! TF.FileFunction,Plated,1,2,PTH
FMAT,2
METRIC
; #@! TA.AperFunction,Plated,PTH,ViaDrill
T1C0.400
; #@! TA.AperFunction,Plated,PTH,ComponentDrill
T2C0.700
; #@! TA.AperFunction,Plated,PTH,ComponentDrill
T3C0.762
; #@! TA.AperFunction,Plated,PTH,ComponentDrill
T4C0.800
; #@! TA.AperFunction,Plated,PTH,ComponentDrill
T5C1.600
%
G90
G05
T1
X82.2Y-112.7
T2
X77.86Y-87.8
X82.94Y-87.8
X88.46Y-95.0
X88.51Y-87.75
X88.52Y-90.1
X93.54Y-95.0
X93.59Y-87.75
X93.6Y-90.1
X99.72Y-87.8
X99.76Y-90.15
X104.8Y-87.8
X104.84Y-90.15
X107.76Y-90.2
X107.81Y-85.65
X107.81Y-87.9
X112.84Y-90.2
X112.89Y-85.65
X112.89Y-87.9
T3
X45.5Y-102.5
X45.5Y-107.5
X45.5Y-126.5
X45.5Y-131.5
X49.462Y-102.5
X49.462Y-107.5
X49.462Y-126.5
X49.462Y-131.5
X53.425Y-102.5
X53.425Y-107.5
X53.425Y-126.5
X53.425Y-131.5
X57.387Y-102.5
X57.387Y-107.5
X57.387Y-126.5
X57.387Y-131.5
X61.35Y-102.5
X61.35Y-107.5
X61.35Y-126.5
X61.35Y-131.5
X65.312Y-102.5
X65.312Y-107.5
X65.312Y-126.5
X65.312Y-131.5
X69.274Y-102.5
X69.274Y-107.5
X69.274Y-126.5
X69.274Y-131.5
X73.237Y-102.5
X73.237Y-107.5
X73.237Y-126.5
X73.237Y-131.5
X77.199Y-102.5
X77.199Y-107.5
X77.199Y-126.5
X77.199Y-131.5
X81.162Y-102.5
X81.162Y-107.5
X81.162Y-126.5
X81.162Y-131.5
X85.124Y-102.5
X85.124Y-107.5
X85.124Y-126.5
X85.124Y-131.5
X89.086Y-102.5
X89.086Y-107.5
X89.086Y-126.5
X89.086Y-131.5
X93.049Y-102.5
X93.049Y-107.5
X93.049Y-126.5
X93.049Y-131.5
X97.011Y-102.5
X97.011Y-107.5
X97.011Y-126.5
X97.011Y-131.5
X100.974Y-102.5
X100.974Y-107.5
X100.974Y-126.5
X100.974Y-131.5
X104.936Y-102.5
X104.936Y-107.5
X104.936Y-126.5
X104.936Y-131.5
X108.898Y-102.5
X108.898Y-107.5
X108.898Y-126.5
X108.898Y-131.5
X112.861Y-102.5
X112.861Y-107.5
X112.861Y-126.5
X112.861Y-131.5
X116.823Y-102.5
X116.823Y-107.5
X116.823Y-126.5
X116.823Y-131.5
X120.786Y-102.5
X120.786Y-107.5
X120.786Y-126.5
X120.786Y-131.5
X124.748Y-102.5
X124.748Y-107.5
X124.748Y-126.5
X124.748Y-131.5
X128.71Y-102.5
X128.71Y-107.5
X128.71Y-126.5
X128.71Y-131.5
X132.673Y-102.5
X132.673Y-107.5
X132.673Y-126.5
X132.673Y-131.5
X136.635Y-102.5
X136.635Y-107.5
X136.635Y-126.5
X136.635Y-131.5
X140.598Y-102.5
X140.598Y-107.5
X140.598Y-126.5
X140.598Y-131.5
X144.56Y-102.5
X144.56Y-107.5
X144.56Y-126.5
X144.56Y-131.5
X148.522Y-102.5
X148.522Y-107.5
X148.522Y-126.5
X148.522Y-131.5
X152.485Y-102.5
X152.485Y-107.5
X152.485Y-126.5
X152.485Y-131.5
X156.447Y-102.5
X156.447Y-107.5
X156.447Y-126.5
X156.447Y-131.5
X160.41Y-102.5
X160.41Y-107.5
X160.41Y-126.5
X160.41Y-131.5
X164.372Y-102.5
X164.372Y-107.5
X164.372Y-126.5
X164.372Y-131.5
X168.334Y-102.5
X168.334Y-107.5
X168.334Y-126.5
X168.334Y-131.5
X172.297Y-102.5
X172.297Y-107.5
X172.297Y-126.5
X172.297Y-131.5
X176.259Y-102.5
X176.259Y-107.5
X176.259Y-126.5
X176.259Y-131.5
X180.222Y-102.5
X180.222Y-107.5
X180.222Y-126.5
X180.222Y-131.5
X184.184Y-102.5
X184.184Y-107.5
X184.184Y-126.5
X184.184Y-131.5
X188.146Y-102.5
X188.146Y-107.5
X188.146Y-126.5
X188.146Y-131.5
X192.109Y-102.5
X192.109Y-107.5
X192.109Y-126.5
X192.109Y-131.5
X196.071Y-102.5
X196.071Y-107.5
X196.071Y-126.5
X196.071Y-131.5
X200.034Y-102.5
X200.034Y-107.5
X200.034Y-126.5
X200.034Y-131.5
X203.996Y-102.5
X203.996Y-107.5
X203.996Y-126.5
X203.996Y-131.5
X207.958Y-102.5
X207.958Y-107.5
X207.958Y-126.5
X207.958Y-131.5
X211.921Y-102.5
X211.921Y-107.5
X211.921Y-126.5
X211.921Y-131.5
T4
X47.5Y-117.0
X52.5Y-117.0
X56.5Y-117.0
X56.92Y-93.0
X59.46Y-93.0
X61.5Y-117.0
X62.0Y-93.0
X64.54Y-93.0
X67.08Y-93.0
X69.62Y-93.0
X72.16Y-93.0
X74.7Y-93.0
X77.24Y-93.0
X79.78Y-93.0
X100.575Y-93.6
X103.115Y-93.6
X105.655Y-93.6
X108.195Y-93.6
X110.735Y-93.6
X113.275Y-93.6
X115.815Y-93.6
X118.355Y-93.6
X120.895Y-93.6
X123.275Y-86.0
X123.435Y-93.6
X125.815Y-86.0
X128.355Y-86.0
X130.895Y-86.0
X133.435Y-86.0
X135.975Y-86.0
X137.425Y-93.5
X138.515Y-86.0
X139.965Y-93.5
X141.055Y-86.0
X142.505Y-93.5
X143.595Y-86.0
X145.045Y-93.5
X146.135Y-86.0
X147.585Y-93.5
X150.125Y-93.5
X152.665Y-93.5
X154.175Y-85.95
X155.205Y-93.5
X156.715Y-85.95
X157.745Y-93.5
X159.255Y-85.95
X160.285Y-93.5
X161.795Y-85.95
X164.335Y-85.95
X166.875Y-85.95
X169.415Y-85.95
X171.955Y-85.95
X173.025Y-93.55
X174.495Y-85.95
X175.565Y-93.55
X177.035Y-85.95
X178.105Y-93.55
X180.645Y-93.55
X183.185Y-93.55
X185.725Y-93.55
X188.265Y-93.55
X190.805Y-93.55
X193.345Y-93.55
X195.885Y-93.55
X198.5Y-117.0
X203.5Y-117.0
X208.5Y-117.0
X213.5Y-117.0
T5
X201.9Y-89.0
X205.4Y-89.0
X208.9Y-89.0
X212.4Y-89.0
X215.9Y-89.0
X219.4Y-89.0
M30
